# xmcd CD database file
#
# Track frame offsets:
#	150
#	30258
#	61279
#	78672
#	114896
#	138542
#	153971
#	175431
#	198132
#	225411
#
# Disc length: 3049 seconds
#
# Revision: 0
# Processed by: cddbd v1.5PL3 Copyright (c) Steve Scherf et al.
# Submitted via: CDex 1.51
#
DISCID=730be70a
DTITLE=Wolfgang Mitschke - Sundance
DYEAR=1999
DGENRE=Jazz
TTITLE0=In your own sweet way
TTITLE1=Blue Monk
TTITLE2=If I should loose you
TTITLE3=Waltz for Debbie
TTITLE4=There is no greater love
TTITLE5=Song for Anja
TTITLE6=Someday my prince will come
TTITLE7=The yardbird suite
TTITLE8=Sundance
TTITLE9=The end
EXTD=YEAR: 1999
EXTT0=
EXTT1=
EXTT2=
EXTT3=
EXTT4=
EXTT5=
EXTT6=
EXTT7=
EXTT8=
EXTT9=
PLAYORDER=
